<?xml version="1.0" encoding="UTF-8"?>
<!DOCTYPE svg PUBLIC "-//W3C//DTD SVG 1.1//EN" "http://www.w3.org/Graphics/SVG/1.1/DTD/svg11.dtd">
<svg xmlns="http://www.w3.org/2000/svg" version="1.1" width="184px" height="184px" style="shape-rendering:geometricPrecision; text-rendering:geometricPrecision; image-rendering:optimizeQuality; fill-rule:evenodd; clip-rule:evenodd" xmlns:xlink="http://www.w3.org/1999/xlink">
<g><path style="opacity:1" fill="#2c303f" d="M -0.5,0.5 C -0.5,0.166667 -0.5,-0.166667 -0.5,-0.5C 59.8333,-0.5 120.167,-0.5 180.5,-0.5C 179.833,0.166667 179.167,0.833333 178.5,1.5C 120.5,1.5 62.5,1.5 4.5,1.5C 3.08134,0.548855 1.41467,0.215521 -0.5,0.5 Z"/></g>
<g><path style="opacity:1" fill="#b7dae4" d="M 178.5,4.5 C 179.481,29.1218 179.814,53.7885 179.5,78.5C 176.168,76.83 173.168,74.6633 170.5,72C 166.78,70.5944 163.114,69.0944 159.5,67.5C 155.743,65.5809 151.743,64.2476 147.5,63.5C 146.833,63.5 146.5,63.1667 146.5,62.5C 144.885,56.8474 141.885,52.0141 137.5,48C 135.846,47.3923 134.179,46.8923 132.5,46.5C 130.842,42.3275 128.175,38.8275 124.5,36C 118.748,32.4572 112.748,29.4572 106.5,27C 98.8406,26.5003 91.1739,26.3336 83.5,26.5C 76.3231,27.1173 69.6564,29.1173 63.5,32.5C 48.5295,38.8059 38.8628,49.8059 34.5,65.5C 33.596,66.209 33.2627,67.209 33.5,68.5C 26.8735,67.9886 21.2068,69.9886 16.5,74.5C 16.1667,74.5 15.8333,74.5 15.5,74.5C 11.5172,76.8058 7.51719,79.1391 3.5,81.5C 3.18505,55.7887 3.51838,30.1221 4.5,4.5C 62.5,3.16667 120.5,3.16667 178.5,4.5 Z"/></g>
<g><path style="opacity:1" fill="#a8bcc3" d="M 4.5,4.5 C 3.51838,30.1221 3.18505,55.7887 3.5,81.5C 3.5,82.1667 3.16667,82.5 2.5,82.5C 2.33336,56.8312 2.50003,31.1645 3,5.5C 3.38258,4.94404 3.88258,4.61071 4.5,4.5 Z"/></g>
<g><path style="opacity:1" fill="#5b6368" d="M 4.5,1.5 C 62.5,1.5 120.5,1.5 178.5,1.5C 179.833,1.5 181.167,1.5 182.5,1.5C 182.5,27.8333 182.5,54.1667 182.5,80.5C 181.833,80.1667 181.167,79.8333 180.5,79.5C 180.667,54.8311 180.5,30.1644 180,5.5C 179.617,4.94404 179.117,4.61071 178.5,4.5C 120.5,3.16667 62.5,3.16667 4.5,4.5C 3.88258,4.61071 3.38258,4.94404 3,5.5C 2.50003,31.1645 2.33336,56.8312 2.5,82.5C 1.83333,82.5 1.5,82.8333 1.5,83.5C 1.16667,83.5 0.833333,83.5 0.5,83.5C 0.5,56.1667 0.5,28.8333 0.5,1.5C 1.83333,1.5 3.16667,1.5 4.5,1.5 Z"/></g>
<g><path style="opacity:1" fill="#3b484d" d="M 83.5,26.5 C 76.9706,28.6739 70.3039,30.6739 63.5,32.5C 69.6564,29.1173 76.3231,27.1173 83.5,26.5 Z"/></g>
<g><path style="opacity:1" fill="#a7bbc2" d="M 178.5,4.5 C 179.117,4.61071 179.617,4.94404 180,5.5C 180.5,30.1644 180.667,54.8311 180.5,79.5C 179.833,79.5 179.5,79.1667 179.5,78.5C 179.814,53.7885 179.481,29.1218 178.5,4.5 Z"/></g>
<g><path style="opacity:1" fill="#98b2b7" d="M 132.5,46.5 C 134.179,46.8923 135.846,47.3923 137.5,48C 141.885,52.0141 144.885,56.8474 146.5,62.5C 145.5,62.5 144.5,62.5 143.5,62.5C 141.425,56.0884 137.758,50.7551 132.5,46.5 Z"/></g>
<g><path style="opacity:1" fill="#76c1d7" d="M 147.5,63.5 C 151.743,64.2476 155.743,65.5809 159.5,67.5C 159.414,68.4959 159.748,69.3292 160.5,70C 166.239,72.5909 171.572,75.7575 176.5,79.5C 177.333,111.495 177.833,143.495 178,175.5C 178.791,176.745 179.291,178.078 179.5,179.5C 179.5,180.167 179.167,180.5 178.5,180.5C 165.167,180.5 151.833,180.5 138.5,180.5C 138.286,178.856 138.62,177.356 139.5,176C 138.137,167.866 136.804,159.7 135.5,151.5C 135.97,150.537 136.637,150.537 137.5,151.5C 139.454,158.347 141.454,165.18 143.5,172C 146.254,173.976 148.588,173.476 150.5,170.5C 151.808,166.685 151.808,163.019 150.5,159.5C 149.227,155.349 147.56,151.349 145.5,147.5C 141.365,137.228 135.698,127.895 128.5,119.5C 130.841,117.171 133.508,115.171 136.5,113.5C 139.996,107.176 143.496,100.842 147,94.5C 149.638,84.1719 149.805,73.8386 147.5,63.5 Z"/></g>
<g><path style="opacity:1" fill="#75c1d8" d="M 53.5,180.5 C 40.8333,180.5 28.1667,180.5 15.5,180.5C 15.719,179.325 15.3857,178.325 14.5,177.5C 10.9127,179.328 8.07933,178.661 6,175.5C 5.72052,148.995 5.22052,122.495 4.5,96C 2.00873,86.4721 5.34206,80.3055 14.5,77.5C 15.3857,76.675 15.719,75.675 15.5,74.5C 15.8333,74.5 16.1667,74.5 16.5,74.5C 20.0882,73.6318 23.5882,72.2985 27,70.5C 29.1515,70.7649 30.8181,71.7649 32,73.5C 32.6145,78.9059 33.6145,84.2392 35,89.5C 39.2865,94.3647 42.4532,99.8647 44.5,106C 44.8056,112.872 44.4723,119.872 43.5,127C 44.029,131.116 45.029,135.116 46.5,139C 45.8524,140.44 45.5191,141.94 45.5,143.5C 47.8176,143.657 49.4843,144.824 50.5,147C 49.1309,150.495 50.4642,152.328 54.5,152.5C 55.3742,154.747 55.7076,157.08 55.5,159.5C 56.5,159.5 57.5,159.5 58.5,159.5C 56.5585,166.406 54.8918,173.406 53.5,180.5 Z"/></g>
<g><path style="opacity:1" fill="#2c2e35" d="M 180.5,-0.5 C 181.5,-0.5 182.5,-0.5 183.5,-0.5C 183.5,60.5 183.5,121.5 183.5,182.5C 182.502,148.671 182.168,114.671 182.5,80.5C 182.5,54.1667 182.5,27.8333 182.5,1.5C 181.167,1.5 179.833,1.5 178.5,1.5C 179.167,0.833333 179.833,0.166667 180.5,-0.5 Z"/></g>
<g><path style="opacity:1" fill="#65a3b5" d="M 143.5,62.5 C 144.5,62.5 145.5,62.5 146.5,62.5C 146.5,63.1667 146.833,63.5 147.5,63.5C 149.805,73.8386 149.638,84.1719 147,94.5C 143.496,100.842 139.996,107.176 136.5,113.5C 133.508,115.171 130.841,117.171 128.5,119.5C 127.662,119.158 127.328,118.492 127.5,117.5C 129.072,112.918 131.739,108.585 135.5,104.5C 136.975,103.738 138.309,103.405 139.5,103.5C 139.243,100.624 140.243,97.957 142.5,95.5C 143.48,92.9135 143.813,90.2469 143.5,87.5C 144.792,79.162 144.792,70.8286 143.5,62.5 Z"/></g>
<g><path style="opacity:1" fill="#0d0e11" d="M 83.5,26.5 C 91.1739,26.3336 98.8406,26.5003 106.5,27C 112.748,29.4572 118.748,32.4572 124.5,36C 128.175,38.8275 130.842,42.3275 132.5,46.5C 137.758,50.7551 141.425,56.0884 143.5,62.5C 144.792,70.8286 144.792,79.162 143.5,87.5C 141.127,93.2491 138.46,98.9157 135.5,104.5C 131.681,107.818 128.014,111.318 124.5,115C 124.748,116.749 125.748,117.582 127.5,117.5C 127.328,118.492 127.662,119.158 128.5,119.5C 135.698,127.895 141.365,137.228 145.5,147.5C 147.748,153.259 148.748,159.259 148.5,165.5C 147.167,165.5 145.833,165.5 144.5,165.5C 143.225,152.62 138.392,141.287 130,131.5C 131.611,145.169 133.444,158.835 135.5,172.5C 135.5,175.5 135.5,178.5 135.5,181.5C 134.167,181.5 132.833,181.5 131.5,181.5C 130.646,175.879 130.313,170.212 130.5,164.5C 110.434,164.902 90.4343,164.235 70.5,162.5C 69.209,162.263 68.209,162.596 67.5,163.5C 66.8826,163.611 66.3826,163.944 66,164.5C 64.971,170.123 64.471,175.79 64.5,181.5C 62.5,181.5 60.5,181.5 58.5,181.5C 58.5,180.167 58.5,178.833 58.5,177.5C 58.5,176.833 58.5,176.167 58.5,175.5C 59.9891,171.764 60.6558,167.764 60.5,163.5C 61.5,156.833 62.5,150.167 63.5,143.5C 65.4002,138.088 66.2336,132.421 66,126.5C 63.766,130.458 60.9327,133.958 57.5,137C 55.6547,138.128 53.6547,138.628 51.5,138.5C 50.2719,137.694 49.2719,136.694 48.5,135.5C 47.677,127.529 47.3437,119.529 47.5,111.5C 48.4511,110.081 48.7845,108.415 48.5,106.5C 49.5735,105.749 49.7401,104.749 49,103.5C 47.2962,101.627 45.4628,99.9599 43.5,98.5C 36.6416,88.5861 33.6416,77.5861 34.5,65.5C 38.8628,49.8059 48.5295,38.8059 63.5,32.5C 70.3039,30.6739 76.9706,28.6739 83.5,26.5 Z"/></g>
<g><path style="opacity:1" fill="#7b7c7e" d="M 60.5,93.5 C 60.573,95.0269 59.9063,96.0269 58.5,96.5C 58.427,94.9731 59.0937,93.9731 60.5,93.5 Z"/></g>
<g><path style="opacity:1" fill="#9d9d9d" d="M 53.5,92.5 C 53.0135,95.7145 52.0135,96.0478 50.5,93.5C 51.609,93.4431 52.609,93.1098 53.5,92.5 Z"/></g>
<g><path style="opacity:1" fill="#cbcbcb" d="M 126.5,48.5 C 127.906,48.9731 128.573,49.9731 128.5,51.5C 130.348,54.3546 132.015,57.3546 133.5,60.5C 135.674,67.6407 136.007,74.9741 134.5,82.5C 133.034,86.0636 131.868,89.7302 131,93.5C 129.389,97.2748 126.889,100.275 123.5,102.5C 126.195,96.2839 128.695,89.9506 131,83.5C 131.667,76.1667 131.667,68.8333 131,61.5C 128.441,57.5523 126.941,53.219 126.5,48.5 Z"/></g>
<g><path style="opacity:1" fill="#6b6d6d" d="M 44.5,84.5 C 45.9063,84.9731 46.573,85.9731 46.5,87.5C 45.0937,87.0269 44.427,86.0269 44.5,84.5 Z"/></g>
<g><path style="opacity:1" fill="#b5b4b7" d="M 45.5,58.5 C 43.7579,65.6836 43.0912,73.017 43.5,80.5C 42.3483,75.0154 42.1816,69.3487 43,63.5C 43.3736,61.5087 44.207,59.842 45.5,58.5 Z"/></g>
<g><path style="opacity:1" fill="#a2a2a1" d="M 128.5,51.5 C 131.978,53.4532 133.645,56.4532 133.5,60.5C 132.015,57.3546 130.348,54.3546 128.5,51.5 Z"/></g>
<g><path style="opacity:1" fill="#fafafa" d="M 82.5,34.5 C 89.5,34.5 96.5,34.5 103.5,34.5C 113.325,35.9 120.992,40.5667 126.5,48.5C 126.941,53.219 128.441,57.5523 131,61.5C 131.667,68.8333 131.667,76.1667 131,83.5C 128.695,89.9506 126.195,96.2839 123.5,102.5C 121.191,104.987 118.524,106.987 115.5,108.5C 112.341,109.331 109.341,110.331 106.5,111.5C 104.735,112.461 102.735,112.795 100.5,112.5C 94.155,112.347 87.8217,112.014 81.5,111.5C 79.4855,110.076 77.1522,109.41 74.5,109.5C 72.2883,106.642 69.2883,105.309 65.5,105.5C 62.6575,104.828 60.1575,103.494 58,101.5C 57.2204,99.6131 57.3871,97.9464 58.5,96.5C 59.9063,96.0269 60.573,95.0269 60.5,93.5C 61.3431,90.4838 62.8431,87.8171 65,85.5C 65.7401,84.2506 65.5735,83.2506 64.5,82.5C 62.5453,81.0698 60.8786,81.4031 59.5,83.5C 56.7693,85.9464 54.7693,88.9464 53.5,92.5C 52.609,93.1098 51.609,93.4431 50.5,93.5C 49.1667,91.5 47.8333,89.5 46.5,87.5C 46.573,85.9731 45.9063,84.9731 44.5,84.5C 44.7678,82.901 44.4345,81.5676 43.5,80.5C 43.0912,73.017 43.7579,65.6836 45.5,58.5C 53.6445,44.2486 65.9778,36.2486 82.5,34.5 Z"/></g>
<g><path style="opacity:1" fill="#6d6d6d" d="M 64.5,82.5 C 62.7839,82.6287 61.1172,82.962 59.5,83.5C 60.8786,81.4031 62.5453,81.0698 64.5,82.5 Z"/></g>
<g><path style="opacity:1" fill="#515151" d="M 92.5,66.5 C 93.4345,67.5676 93.7678,68.901 93.5,70.5C 91.5853,70.7845 89.9187,70.4511 88.5,69.5C 89.8333,69.5 91.1667,69.5 92.5,69.5C 92.5,68.5 92.5,67.5 92.5,66.5 Z"/></g>
<g><path style="opacity:1" fill="#232323" d="M 113.5,65.5 C 118.501,64.6714 120.668,66.6714 120,71.5C 113.423,74.0878 111.256,72.0878 113.5,65.5 Z"/></g>
<g><path style="opacity:1" fill="#4e4e4e" d="M 88.5,55.5 C 88.5858,56.4959 88.2524,57.3292 87.5,58C 83.5138,58.4988 79.5138,58.6655 75.5,58.5C 75.5,58.1667 75.5,57.8333 75.5,57.5C 80.1398,58.0251 84.4731,57.3584 88.5,55.5 Z"/></g>
<g><path style="opacity:1" fill="#7e7e7e" d="M 75.5,57.5 C 75.5,57.8333 75.5,58.1667 75.5,58.5C 73.2075,58.7564 71.0408,58.4231 69,57.5C 68.5014,61.1516 68.3347,64.8183 68.5,68.5C 67.5166,64.7016 67.1832,60.7016 67.5,56.5C 70.1272,57.0916 72.7938,57.4249 75.5,57.5 Z"/></g>
<g><path style="opacity:1" fill="#424242" d="M 91.5,57.5 C 91.6495,56.448 91.4828,55.448 91,54.5C 90.3292,55.2524 89.4959,55.5858 88.5,55.5C 89.287,53.8958 90.6203,53.2291 92.5,53.5C 92.7678,55.099 92.4345,56.4324 91.5,57.5 Z"/></g>
<g><path style="opacity:1" fill="#151515" d="M 91.5,57.5 C 89.9854,60.737 90.3187,63.737 92.5,66.5C 92.5,67.5 92.5,68.5 92.5,69.5C 91.1667,69.5 89.8333,69.5 88.5,69.5C 86.461,68.089 85.461,66.089 85.5,63.5C 81.1667,63.5 76.8333,63.5 72.5,63.5C 72.6602,65.1992 72.4935,66.8659 72,68.5C 70.7083,69.7911 69.5417,69.7911 68.5,68.5C 68.3347,64.8183 68.5014,61.1516 69,57.5C 71.0408,58.4231 73.2075,58.7564 75.5,58.5C 79.5138,58.6655 83.5138,58.4988 87.5,58C 88.2524,57.3292 88.5858,56.4959 88.5,55.5C 89.4959,55.5858 90.3292,55.2524 91,54.5C 91.4828,55.448 91.6495,56.448 91.5,57.5 Z"/></g>
<g><path style="opacity:1" fill="#1e1e1e" d="M 59.5,48.5 C 64.2196,48.206 65.8863,50.206 64.5,54.5C 59.303,55.6301 57.6363,53.6301 59.5,48.5 Z"/></g>
<g><path style="opacity:1" fill="#afafaf" d="M 103.5,34.5 C 96.5,34.5 89.5,34.5 82.5,34.5C 89.4927,31.8986 96.4927,31.8986 103.5,34.5 Z"/></g>
<g><path style="opacity:1" fill="#5d8894" d="M 143.5,87.5 C 143.813,90.2469 143.48,92.9135 142.5,95.5C 140.243,97.957 139.243,100.624 139.5,103.5C 138.309,103.405 136.975,103.738 135.5,104.5C 138.46,98.9157 141.127,93.2491 143.5,87.5 Z"/></g>
<g><path style="opacity:1" fill="#4b7179" d="M 43.5,98.5 C 45.4628,99.9599 47.2962,101.627 49,103.5C 49.7401,104.749 49.5735,105.749 48.5,106.5C 46.8333,103.833 45.1667,101.167 43.5,98.5 Z"/></g>
<g><path style="opacity:1" fill="#292e33" d="M -0.5,0.5 C 1.41467,0.215521 3.08134,0.548855 4.5,1.5C 3.16667,1.5 1.83333,1.5 0.5,1.5C 0.5,28.8333 0.5,56.1667 0.5,83.5C 0.174146,116.906 0.507479,150.24 1.5,183.5C 0.833333,183.5 0.166667,183.5 -0.5,183.5C -0.5,122.5 -0.5,61.5 -0.5,0.5 Z"/></g>
<g><path style="opacity:1" fill="#7ebac8" d="M 159.5,67.5 C 163.114,69.0944 166.78,70.5944 170.5,72C 173.168,74.6633 176.168,76.83 179.5,78.5C 179.5,79.1667 179.833,79.5 180.5,79.5C 180.832,113.004 180.498,146.338 179.5,179.5C 179.291,178.078 178.791,176.745 178,175.5C 177.833,143.495 177.333,111.495 176.5,79.5C 171.572,75.7575 166.239,72.5909 160.5,70C 159.748,69.3292 159.414,68.4959 159.5,67.5 Z"/></g>
<g><path style="opacity:1" fill="#b8b8b8" d="M 65.5,105.5 C 69.2883,105.309 72.2883,106.642 74.5,109.5C 71.0878,108.958 68.0878,107.625 65.5,105.5 Z"/></g>
<g><path style="opacity:1" fill="#727272" d="M 74.5,109.5 C 77.1522,109.41 79.4855,110.076 81.5,111.5C 78.8478,111.59 76.5145,110.924 74.5,109.5 Z"/></g>
<g><path style="opacity:1" fill="#4c4c4c" d="M 115.5,108.5 C 113.081,110.862 110.081,111.862 106.5,111.5C 109.341,110.331 112.341,109.331 115.5,108.5 Z"/></g>
<g><path style="opacity:1" fill="#466169" d="M 2.5,82.5 C 2.33335,114.835 2.50002,147.168 3,179.5C 3.81595,180.823 4.98261,181.489 6.5,181.5C 4.84656,182.799 3.34656,182.466 2,180.5C 1.50002,148.168 1.33335,115.835 1.5,83.5C 1.5,82.8333 1.83333,82.5 2.5,82.5 Z"/></g>
<g><path style="opacity:1" fill="#636363" d="M 81.5,111.5 C 87.8217,112.014 94.155,112.347 100.5,112.5C 94.1011,113.854 87.7677,113.521 81.5,111.5 Z"/></g>
<g><path style="opacity:1" fill="#618895" d="M 135.5,104.5 C 131.739,108.585 129.072,112.918 127.5,117.5C 125.748,117.582 124.748,116.749 124.5,115C 128.014,111.318 131.681,107.818 135.5,104.5 Z"/></g>
<g><path style="opacity:1" fill="#74afc1" d="M 56.5,130.5 C 55.5,130.5 54.5,130.5 53.5,130.5C 53.5,124.167 53.5,117.833 53.5,111.5C 53.8425,109.775 54.8425,109.275 56.5,110C 58.6188,112.393 61.2855,113.726 64.5,114C 65.0219,114.561 65.3552,115.228 65.5,116C 62.687,120.973 59.687,125.807 56.5,130.5 Z"/></g>
<g><path style="opacity:1" fill="#4f7c88" d="M 47.5,111.5 C 47.3437,119.529 47.677,127.529 48.5,135.5C 47.7321,134.737 47.2321,133.737 47,132.5C 46.1787,125.321 46.3454,118.321 47.5,111.5 Z"/></g>
<g><path style="opacity:1" fill="#4c6a75" d="M 53.5,111.5 C 53.5,117.833 53.5,124.167 53.5,130.5C 54.5,130.5 55.5,130.5 56.5,130.5C 55.713,132.104 54.3797,132.771 52.5,132.5C 52.1755,125.313 52.5088,118.313 53.5,111.5 Z"/></g>
<g><path style="opacity:1" fill="#d7d7d8" d="M 121.5,125.5 C 121.083,129.817 121.75,133.817 123.5,137.5C 123.5,137.833 123.5,138.167 123.5,138.5C 123.171,141.228 123.837,143.562 125.5,145.5C 125.5,146.5 125.5,147.5 125.5,148.5C 125.5,151.833 125.5,155.167 125.5,158.5C 122.833,158.5 120.167,158.5 117.5,158.5C 111.461,142.457 100.794,130.457 85.5,122.5C 92.8409,122.666 100.174,122.5 107.5,122C 108.056,121.617 108.389,121.117 108.5,120.5C 112.397,119.09 116.397,118.09 120.5,117.5C 120.833,120.167 121.167,122.833 121.5,125.5 Z"/></g>
<g><path style="opacity:1" fill="#fbfbfa" d="M 80.5,120.5 C 81.9303,121.537 83.597,122.204 85.5,122.5C 100.794,130.457 111.461,142.457 117.5,158.5C 116.833,158.5 116.5,158.833 116.5,159.5C 102.167,159.5 87.8333,159.5 73.5,159.5C 72.4324,158.566 71.099,158.232 69.5,158.5C 69.5,156.5 69.5,154.5 69.5,152.5C 71.966,141.346 72.966,130.013 72.5,118.5C 75.3408,118.56 78.0075,119.226 80.5,120.5 Z"/></g>
<g><path style="opacity:1" fill="#b1b1b1" d="M 80.5,120.5 C 89.8378,121.799 99.1712,121.799 108.5,120.5C 108.389,121.117 108.056,121.617 107.5,122C 100.174,122.5 92.8409,122.666 85.5,122.5C 83.597,122.204 81.9303,121.537 80.5,120.5 Z"/></g>
<g><path style="opacity:1" fill="#a0a1a1" d="M 121.5,125.5 C 122.617,129.295 123.283,133.295 123.5,137.5C 121.75,133.817 121.083,129.817 121.5,125.5 Z"/></g>
<g><path style="opacity:1" fill="#80b6c5" d="M 15.5,74.5 C 15.719,75.675 15.3857,76.675 14.5,77.5C 5.34206,80.3055 2.00873,86.4721 4.5,96C 5.22052,122.495 5.72052,148.995 6,175.5C 8.07933,178.661 10.9127,179.328 14.5,177.5C 15.3857,178.325 15.719,179.325 15.5,180.5C 28.1667,180.5 40.8333,180.5 53.5,180.5C 54.8333,180.5 56.1667,180.5 57.5,180.5C 40.6749,181.497 23.6749,181.83 6.5,181.5C 4.98261,181.489 3.81595,180.823 3,179.5C 2.50002,147.168 2.33335,114.835 2.5,82.5C 3.16667,82.5 3.5,82.1667 3.5,81.5C 7.51719,79.1391 11.5172,76.8058 15.5,74.5 Z"/></g>
<g><path style="opacity:1" fill="#6597a5" d="M 63.5,143.5 C 63.6621,141.473 63.4955,139.473 63,137.5C 61.5374,139.885 59.3708,140.885 56.5,140.5C 55.1667,140.333 53.8333,140.167 52.5,140C 51.944,139.617 51.6107,139.117 51.5,138.5C 53.6547,138.628 55.6547,138.128 57.5,137C 60.9327,133.958 63.766,130.458 66,126.5C 66.2336,132.421 65.4002,138.088 63.5,143.5 Z"/></g>
<g><path style="opacity:1" fill="#757475" d="M 123.5,138.5 C 124.924,140.515 125.59,142.848 125.5,145.5C 123.837,143.562 123.171,141.228 123.5,138.5 Z"/></g>
<g><path style="opacity:1" fill="#78bdd0" d="M 34.5,65.5 C 33.6416,77.5861 36.6416,88.5861 43.5,98.5C 45.1667,101.167 46.8333,103.833 48.5,106.5C 48.7845,108.415 48.4511,110.081 47.5,111.5C 46.3454,118.321 46.1787,125.321 47,132.5C 47.2321,133.737 47.7321,134.737 48.5,135.5C 49.2719,136.694 50.2719,137.694 51.5,138.5C 51.6107,139.117 51.944,139.617 52.5,140C 53.8333,140.167 55.1667,140.333 56.5,140.5C 59.3708,140.885 61.5374,139.885 63,137.5C 63.4955,139.473 63.6621,141.473 63.5,143.5C 62.5,150.167 61.5,156.833 60.5,163.5C 59.2053,167.267 58.5387,171.267 58.5,175.5C 58.5,176.167 58.5,176.833 58.5,177.5C 57.596,178.209 57.2627,179.209 57.5,180.5C 56.1667,180.5 54.8333,180.5 53.5,180.5C 54.8918,173.406 56.5585,166.406 58.5,159.5C 57.5,159.5 56.5,159.5 55.5,159.5C 55.7076,157.08 55.3742,154.747 54.5,152.5C 50.4642,152.328 49.1309,150.495 50.5,147C 49.4843,144.824 47.8176,143.657 45.5,143.5C 45.5191,141.94 45.8524,140.44 46.5,139C 45.029,135.116 44.029,131.116 43.5,127C 44.4723,119.872 44.8056,112.872 44.5,106C 42.4532,99.8647 39.2865,94.3647 35,89.5C 33.6145,84.2392 32.6145,78.9059 32,73.5C 30.8181,71.7649 29.1515,70.7649 27,70.5C 23.5882,72.2985 20.0882,73.6318 16.5,74.5C 21.2068,69.9886 26.8735,67.9886 33.5,68.5C 33.2627,67.209 33.596,66.209 34.5,65.5 Z"/></g>
<g><path style="opacity:1" fill="#6494a3" d="M 144.5,165.5 C 144.5,165.833 144.5,166.167 144.5,166.5C 141.819,161.988 140.319,156.988 140,151.5C 138.929,148.887 138.095,148.887 137.5,151.5C 136.637,150.537 135.97,150.537 135.5,151.5C 136.804,159.7 138.137,167.866 139.5,176C 138.62,177.356 138.286,178.856 138.5,180.5C 151.833,180.5 165.167,180.5 178.5,180.5C 164.677,181.496 150.677,181.829 136.5,181.5C 136.81,178.287 136.477,175.287 135.5,172.5C 133.444,158.835 131.611,145.169 130,131.5C 138.392,141.287 143.225,152.62 144.5,165.5 Z"/></g>
<g><path style="opacity:1" fill="#878885" d="M 69.5,152.5 C 69.5,154.5 69.5,156.5 69.5,158.5C 71.099,158.232 72.4324,158.566 73.5,159.5C 71.8333,159.5 70.1667,159.5 68.5,159.5C 68.1984,156.941 68.5318,154.607 69.5,152.5 Z"/></g>
<g><path style="opacity:1" fill="#838282" d="M 125.5,148.5 C 126.525,151.974 127.192,155.64 127.5,159.5C 123.833,159.5 120.167,159.5 116.5,159.5C 116.5,158.833 116.833,158.5 117.5,158.5C 120.167,158.5 122.833,158.5 125.5,158.5C 125.5,155.167 125.5,151.833 125.5,148.5 Z"/></g>
<g><path style="opacity:1" fill="#14242b" d="M 145.5,147.5 C 147.56,151.349 149.227,155.349 150.5,159.5C 150.663,161.857 150.497,164.19 150,166.5C 148.172,167.752 146.339,167.752 144.5,166.5C 144.5,166.167 144.5,165.833 144.5,165.5C 145.833,165.5 147.167,165.5 148.5,165.5C 148.748,159.259 147.748,153.259 145.5,147.5 Z"/></g>
<g><path style="opacity:1" fill="#3f0e49" d="M 73.5,164.5 C 73.5,164.167 73.5,163.833 73.5,163.5C 91.6183,164.954 109.618,165.954 127.5,166.5C 113.5,166.5 99.5,166.5 85.5,166.5C 81.3597,166.471 77.3597,165.804 73.5,164.5 Z"/></g>
<g><path style="opacity:1" fill="#150318" d="M 70.5,162.5 C 90.4343,164.235 110.434,164.902 130.5,164.5C 130.313,170.212 130.646,175.879 131.5,181.5C 130.833,181.5 130.167,181.5 129.5,181.5C 129.666,176.821 129.499,172.155 129,167.5C 128.617,166.944 128.117,166.611 127.5,166.5C 109.618,165.954 91.6183,164.954 73.5,163.5C 72.209,163.737 71.209,163.404 70.5,162.5 Z"/></g>
<g><path style="opacity:1" fill="#241227" d="M 67.5,163.5 C 66.9063,169.51 66.2396,175.51 65.5,181.5C 65.1667,181.5 64.8333,181.5 64.5,181.5C 64.471,175.79 64.971,170.123 66,164.5C 66.3826,163.944 66.8826,163.611 67.5,163.5 Z"/></g>
<g><path style="opacity:1" fill="#67a6b7" d="M 144.5,166.5 C 146.339,167.752 148.172,167.752 150,166.5C 150.497,164.19 150.663,161.857 150.5,159.5C 151.808,163.019 151.808,166.685 150.5,170.5C 148.588,173.476 146.254,173.976 143.5,172C 141.454,165.18 139.454,158.347 137.5,151.5C 138.095,148.887 138.929,148.887 140,151.5C 140.319,156.988 141.819,161.988 144.5,166.5 Z"/></g>
<g><path style="opacity:1" fill="#c369d4" d="M 73.5,166.5 C 73.3314,171.181 72.9981,175.848 72.5,180.5C 72.1667,180.5 71.8333,180.5 71.5,180.5C 70.9332,178.97 70.2666,177.47 69.5,176C 70.1667,175.667 70.8333,175.333 71.5,175C 68.6144,171.374 69.2811,168.541 73.5,166.5 Z"/></g>
<g><path style="opacity:1" fill="#385460" d="M 60.5,163.5 C 60.6558,167.764 59.9891,171.764 58.5,175.5C 58.5387,171.267 59.2053,167.267 60.5,163.5 Z"/></g>
<g><path style="opacity:1" fill="#bf7acc" d="M 73.5,165.5 C 73.5,165.833 73.5,166.167 73.5,166.5C 69.2811,168.541 68.6144,171.374 71.5,175C 70.8333,175.333 70.1667,175.667 69.5,176C 70.2666,177.47 70.9332,178.97 71.5,180.5C 70.1667,180.5 68.8333,180.5 67.5,180.5C 67.2748,175.752 67.7748,171.085 69,166.5C 70.3561,165.62 71.8561,165.286 73.5,165.5 Z"/></g>
<g><path style="opacity:1" fill="#672773" d="M 85.5,166.5 C 99.5,166.5 113.5,166.5 127.5,166.5C 128.117,166.611 128.617,166.944 129,167.5C 129.499,172.155 129.666,176.821 129.5,181.5C 128.833,181.5 128.167,181.5 127.5,181.5C 108.992,181.83 90.6591,181.497 72.5,180.5C 90.8333,180.5 109.167,180.5 127.5,180.5C 127.5,176.167 127.5,171.833 127.5,167.5C 113.323,167.829 99.3234,167.496 85.5,166.5 Z"/></g>
<g><path style="opacity:1" fill="#886191" d="M 70.5,162.5 C 71.209,163.404 72.209,163.737 73.5,163.5C 73.5,163.833 73.5,164.167 73.5,164.5C 73.5,164.833 73.5,165.167 73.5,165.5C 71.8561,165.286 70.3561,165.62 69,166.5C 67.7748,171.085 67.2748,175.752 67.5,180.5C 68.8333,180.5 70.1667,180.5 71.5,180.5C 71.8333,180.5 72.1667,180.5 72.5,180.5C 90.6591,181.497 108.992,181.83 127.5,181.5C 106.931,182.826 86.2644,182.826 65.5,181.5C 66.2396,175.51 66.9063,169.51 67.5,163.5C 68.209,162.596 69.209,162.263 70.5,162.5 Z"/></g>
<g><path style="opacity:1" fill="#9227a6" d="M 73.5,164.5 C 77.3597,165.804 81.3597,166.471 85.5,166.5C 99.3234,167.496 113.323,167.829 127.5,167.5C 127.5,171.833 127.5,176.167 127.5,180.5C 109.167,180.5 90.8333,180.5 72.5,180.5C 72.9981,175.848 73.3314,171.181 73.5,166.5C 73.5,166.167 73.5,165.833 73.5,165.5C 73.5,165.167 73.5,164.833 73.5,164.5 Z"/></g>
<g><path style="opacity:1" fill="#9e22b3" d="M 75.5,168.5 C 83.9919,169.196 92.4919,169.863 101,170.5C 107.49,169.917 113.99,169.584 120.5,169.5C 121.709,172.988 121.709,176.154 120.5,179C 105.504,179.5 90.5037,179.667 75.5,179.5C 75.086,175.718 75.086,172.051 75.5,168.5 Z"/></g>
<g><path style="opacity:1" fill="#49585e" d="M 180.5,79.5 C 181.167,79.8333 181.833,80.1667 182.5,80.5C 182.168,114.671 182.502,148.671 183.5,182.5C 183.5,182.833 183.5,183.167 183.5,183.5C 165.5,183.5 147.5,183.5 129.5,183.5C 129.5,182.833 129.5,182.167 129.5,181.5C 130.167,181.5 130.833,181.5 131.5,181.5C 132.833,181.5 134.167,181.5 135.5,181.5C 135.5,178.5 135.5,175.5 135.5,172.5C 136.477,175.287 136.81,178.287 136.5,181.5C 150.677,181.829 164.677,181.496 178.5,180.5C 179.167,180.5 179.5,180.167 179.5,179.5C 180.498,146.338 180.832,113.004 180.5,79.5 Z"/></g>
<g><path style="opacity:1" fill="#49555d" d="M 0.5,83.5 C 0.833333,83.5 1.16667,83.5 1.5,83.5C 1.33335,115.835 1.50002,148.168 2,180.5C 3.34656,182.466 4.84656,182.799 6.5,181.5C 23.6749,181.83 40.6749,181.497 57.5,180.5C 57.2627,179.209 57.596,178.209 58.5,177.5C 58.5,178.833 58.5,180.167 58.5,181.5C 44.1667,182.167 29.8333,182.833 15.5,183.5C 10.8333,183.5 6.16667,183.5 1.5,183.5C 0.507479,150.24 0.174146,116.906 0.5,83.5 Z"/></g>
<g><path style="opacity:1" fill="#504d55" d="M 58.5,181.5 C 60.5,181.5 62.5,181.5 64.5,181.5C 64.8333,181.5 65.1667,181.5 65.5,181.5C 86.2644,182.826 106.931,182.826 127.5,181.5C 128.167,181.5 128.833,181.5 129.5,181.5C 129.5,182.167 129.5,182.833 129.5,183.5C 91.5,183.5 53.5,183.5 15.5,183.5C 29.8333,182.833 44.1667,182.167 58.5,181.5 Z"/></g>
</svg>
